/* XPM */
static char *_bce9359aa84428edfde5bebbdab58baluiIEYhJQqfAlFgg[] = {
/* columns rows colors chars-per-pixel */
"24 24 3 1 ",
"  c #3B4A4F",
". c #2C373B",
"X c gray15",
/* pixels */
"XXXXXXXXXXXXXXXXXXXXXXXX",
"                        ",
"                        ",
"........................",
"........................",
"XXXXXXXXXXXXXXXXXXXXXXXX",
"XXXXXXXXXXXXXXXXXXXXXXXX",
"XXXXXXXXXXXXXXXXXXXXXXXX",
"XXXXXXXXXXXXXXXXXXXXXXXX",
"XXXXXXXXXXXXXXXXXXXXXXXX",
"XXXXXXXXXXXXXXXXXXXXXXXX",
"XXXXXXXXXXXXXXXXXXXXXXXX",
"XXXXXXXXXXXXXXXXXXXXXXXX",
"XXXXXXXXXXXXXXXXXXXXXXXX",
"XXXXXXXXXXXXXXXXXXXXXXXX",
"XXXXXXXXXXXXXXXXXXXXXXXX",
"XXXXXXXXXXXXXXXXXXXXXXXX",
"XXXXXXXXXXXXXXXXXXXXXXXX",
"XXXXXXXXXXXXXXXXXXXXXXXX",
"........................",
"........................",
"                        ",
"                        ",
"XXXXXXXXXXXXXXXXXXXXXXXX"
};
