/* XPM */
static char *_094a702b6394742f2601a7c634e6509ATw7jW6q9vL8vX0Q[] = {
/* columns rows colors chars-per-pixel */
"24 24 7 1 ",
"  c #1BC908",
". c #138A06",
"X c #D14545",
"o c #984848",
"O c #452727",
"+ c gray15",
"@ c #5F2D2D",
/* pixels */
"++++++++++++++++++++++++",
"XXXXXXXXXXX++XXXXXXXXXXX",
"ooooooooooo++ooooooooooo",
"@@@@@@@@@@@++@@@@@@@@@@@",
"@@@@@@@@@@@++@@@@@@@@@@@",
"@@@@@@@@@@@++@@@@@@@@@@@",
"@@@@@@@@@@@++@@@@@@O@@@@",
"@@@@@@@@@@@++@@@@@O@O@@@",
"@@@@@@@@@@@++@@@@@@O@@@@",
"@@@@@@@@@+@++@+@@@@@@@@@",
"@@@@@@@@+.++++.+@@@@@@@@",
"@@@@@@@@+ +@@+ +@@@@@@@@",
"@@@@OOOO+ +@@+ +OOOO@@@@",
"@@@O@@@@+ +@@+ +@@@@O@@@",
"@@@O@@@@+.++++.+@@@@O@@@",
"@@@O@@@@@+@++@+@@@@@O@@@",
"@@@O@@@@@@@++@@@@@@@O@@@",
"@@@O@@@@@@@++@@@@@@@O@@@",
"@@@O@@@@@@@++@@@@@@@O@@@",
"@@@O@@@@@@@++@@@@@@@O@@@",
"@@@O@@@@@@@++@@@@@@@O@@@",
"@@@O@@@@@@@++@@@@@@@O@@@",
"@@@O@@@@@@@++@@@@@@@O@@@",
"++++++++++++++++++++++++"
};
