/* XPM */
static char *_85fcb941c3e40c0b06b428111f93bb368Jr7evVRDfPwHET[] = {
/* columns rows colors chars-per-pixel */
"24 24 12 1 ",
"  c None",
". c gray15",
"X c gray24",
"o c #6E5C32",
"O c DimGray",
"+ c #B86E28",
"@ c #A28238",
"# c #C89C38",
"$ c #FC9838",
"% c gray57",
"& c gray66",
"* c #FFD1A6",
/* pixels */
"                        ",
"                        ",
"          . ....        ",
"         .@.@@@#.       ",
"         .@o@@@@.       ",
"         .@@@@@@.       ",
"      ...ooooooo#...    ",
"     .@@@@@@####ooo..   ",
"     .@@@@##.......o.   ",
"      ......+++.+...    ",
"        ..++.++.+.      ",
"       .$$$$.$++.       ",
" ....  ...$$$*$+....    ",
" .&%%.  .$$$$$$.oo.     ",
" ..... .@.$$$$.o....    ",
"   .$$...@....@.$$.@.   ",
"   .$$@.@@@.@@@.$$.@.   ",
"    ........@@@@....    ",
"        .###......      ",
"       .ooo.#####@.     ",
"      .@@@@.ooo@@@@.    ",
"       ...........@@.   ",
"      .OOXX...XOOX...   ",
"      ...... .......    "
};
